<svg xmlns="http://www.w3.org/2000/svg" width="156" height="26" viewBox="0 0 156 26" fill="none">
    <path fill="#ffffff" d="m92.26773,10.40581l-0.1417,-3.68136l3.79675,-0.16338q0.21208,2.70197 0.21208,4.96886q0,0.52743 -0.02815,1.3319a140.60918,108.13404 0 0 1 -0.01877,0.51766q0.58931,0.07281 1.08385,0.07281a0.42885,0.32942 0 0 1 0.37536,0.16249q0.05161,0.06216 0.09009,0.14562a1.41604,1.0886 0 0 1 0.04223,0.10922q0.10698,0.34629 0.12574,0.99448a16.59552,12.76312 0 0 1 0.00375,0.27526q0,0.87017 -0.1417,1.27773q-0.06569,0.18913 -0.17642,0.29035a0.40069,0.30811 0 0 1 -0.31905,0.11721a0.40726,0.31344 0 0 1 -0.3397,-0.13763q-0.05443,-0.05594 -0.09665,-0.13408a1.39821,1.0744 0 0 1 -0.05818,-0.13585a3.06855,2.36012 0 0 1 -0.0685,-0.26638q-0.07319,-0.38625 -0.07319,-1.01224q0,-0.68992 0.08446,-1.09482a3.11829,2.39741 0 0 1 0.04504,-0.17403a1.27997,0.98383 0 0 1 0.0685,-0.16249q0.04692,-0.08258 0.10885,-0.13852a0.41571,0.31966 0 0 1 0.32938,-0.11632a11.95704,9.19542 0 0 0 0.6672,-0.01332q0.31905,-0.01421 0.594,-0.04173a5.43519,4.18038 0 0 0 0.35378,-0.0444a2.11702,1.62847 0 0 0 0.84174,-0.29213a2.82926,2.17543 0 0 0 0.34908,-0.23441a1.99409,1.53346 0 0 0 0.37536,-0.42532q0.12481,-0.20422 0.20645,-0.46172a4.92095,3.78436 0 0 0 0.10322,-0.44574l1.95655,0a6.91222,5.31604 0 0 0 0.09478,0.70324q0.31905,1.36386 1.60278,1.36386a1.88617,1.45088 0 0 0 1.24244,-0.35784a2.57402,1.98009 0 0 0 0.18393,-0.13141a2.68944,2.06888 0 0 0 0.43166,-0.45728q0.30967,-0.43509 0.50016,-1.08328l1.98001,0.2353q-0.04692,0.32587 -0.04692,0.4706a3.13424,2.41073 0 0 0 0.06663,0.52388q0.21583,0.73965 1.11951,0.85241a2.16769,1.66753 0 0 0 0.34721,0.02042a3.01037,2.31572 0 0 0 0.37067,-0.01953q0.19143,-0.01776 0.41102,-0.05328a7.51186,5.77688 0 0 0 0.46732,-0.09057q-0.21208,-0.68903 -0.50673,-1.35942q-0.27589,-0.62777 -0.35565,-0.79559a3.69352,2.84049 0 0 0 -0.00938,-0.02042l3.77235,-0.67128q0.44761,1.03355 0.44761,2.39386a11.35646,8.73369 0 0 1 -0.16328,1.50149a10.2135,7.85464 0 0 1 -0.08446,0.32942a7.52312,5.78576 0 0 1 -0.24867,0.68371q-0.15765,0.34452 -0.36222,0.62688a4.22935,3.25249 0 0 1 -0.10792,0.14029q-1.60372,0.58071 -3.11266,0.58071a4.8074,3.69735 0 0 1 -1.07728,-0.08879a3.8859,2.98878 0 0 1 -0.89148,-0.24684q-0.86051,-0.33564 -1.37944,-0.98827l-0.21208,0a3.76297,2.89466 0 0 1 -0.89804,0.78404a3.53775,2.72151 0 0 1 -0.43448,0.22198a3.58749,2.7588 0 0 1 -1.73791,0.3534a4.22841,3.2516 0 0 1 -0.06569,0q-0.94309,0 -1.74542,-0.34363a3.17835,2.44447 0 0 1 -1.17299,-0.8826a3.869,2.97546 0 0 1 -0.09947,-0.13319l-0.21208,0a5.86497,4.51069 0 0 1 -0.48984,0.44397q-0.54333,0.42798 -1.10261,0.58959q-0.70192,0.20422 -1.65908,0.23086a8.19595,6.30342 0 0 1 -0.30967,0.00444q-1.29686,0 -2.51115,-0.12697q-0.95341,-0.09945 -1.66659,-0.28858a5.46709,4.20435 0 0 1 -0.37254,-0.1101a4.13832,3.18323 0 0 1 -0.07695,-0.39957q-0.13231,-1.0007 -0.23366,-4.03298a389.61712,299.63328 0 0 1 -0.04317,-1.46065zm-66.14093,2.10351l3.25342,0.81601a24.01354,18.46808 0 0 0 -0.46451,1.12323q-0.45512,1.24488 -0.45512,2.08664q0,0.87017 0.57805,1.32302a1.86365,1.43312 0 0 0 0.83705,0.37293q0.36785,0.0808 0.82579,0.0808a5.61348,4.31712 0 0 0 1.2612,-0.12253q1.45921,-0.26105 3.43077,-1.0744a9.95731,7.65752 0 0 0 -1.37944,-0.78671a10.91635,8.39539 0 0 0 -0.02346,-0.01066q-0.76667,-0.36316 -1.73322,-0.78049l-0.44761,-0.1989l1.15423,-2.39386a45.30386,34.84065 0 0 0 1.99315,0.27703q2.06447,0.24862 3.57247,0.24862q0.36316,0 1.11951,-0.03374a56.43886,43.40474 0 0 0 0.05912,-0.00266q-0.28246,-0.90569 -0.70755,-1.81316q-0.03566,-0.09767 -0.07132,-0.17315a2.07385,1.59472 0 0 0 -0.02252,-0.0444a1.34754,1.03622 0 0 1 -0.06944,-0.17581a1.2537,0.96429 0 0 1 -0.00094,-0.00533l3.77235,-0.67128q0.44761,1.0886 0.44761,2.35746a10.96234,8.43091 0 0 1 -0.25055,1.82203a10.24446,7.87861 0 0 1 -0.00845,0.02753q-0.259,0.88882 -0.73101,1.46864a14.55921,11.19681 0 0 1 -1.02379,0.20156q-1.07446,0.18203 -2.51302,0.32498q0.02346,0.67039 -0.04692,1.29638a14.24766,10.95707 0 0 1 -0.0488,0.36494q-0.05537,0.34896 -0.1295,0.58959a3.84179,2.95415 0 0 1 -0.01032,0.03374q-1.76888,1.14277 -3.91499,1.84956a11.62484,8.94058 0 0 1 -2.38352,0.57183a9.58571,7.37161 0 0 1 -1.81298,0.13585a7.44617,5.72627 0 0 1 -1.75949,-0.15184a5.28504,4.06406 0 0 1 -2.26153,-0.8826a4.326,3.32797 0 0 1 -1.36067,-1.76254q-0.18299,-0.56828 -0.18299,-1.24754q0,-1.08594 0.38662,-2.37966a19.93152,15.32836 0 0 1 0.00188,-0.00444a21.14862,16.26424 0 0 1 0.75635,-1.93835a24.66948,18.97154 0 0 1 0.3641,-0.71922l0,0.00089zm23.50868,-1.68707l3.25436,0.79914a15.72751,12.09451 0 0 0 -0.49735,1.11791q-0.21114,0.57183 -0.3031,1.0815a7.12524,5.47942 0 0 0 -0.07226,0.75563q0,0.67749 0.2712,1.14277a2.16394,1.66398 0 0 0 0.29466,0.37116q0.52456,0.49635 1.57557,0.53276a3.77517,2.90354 0 0 0 0.16891,0.00266a3.98818,3.06691 0 0 0 0.67377,-0.04795q0.33032,-0.04351 0.6991,-0.12697a8.40802,6.46592 0 0 0 0.45512,-0.11543a7.17403,5.51672 0 0 0 1.81486,-0.74941a8.1387,6.25992 0 0 0 0.1783,-0.103a32.57077,25.04854 0 0 1 -0.77793,-0.30811q-1.05757,-0.4342 -1.50425,-0.71656a2.64064,2.0307 0 0 1 -0.04129,-0.02664q-0.38005,-0.25128 -0.51049,-0.51678a1.03224,0.79381 0 0 1 -0.06756,-0.28147a3.534,2.71707 0 0 1 0.18768,-0.84531q0.24867,-0.58426 0.82579,-1.23067q1.01441,-1.13389 2.74762,-2.02182q1.73322,-0.88882 3.80801,-1.16053a3.67663,2.82717 0 0 1 0.07226,0.30367q0.08915,0.50612 0.0929,1.42069a33.83479,26.02082 0 0 1 0,0.08879q0,0.90569 -0.09384,1.2875a28.51596,21.93013 0 0 0 -1.30437,0.2575q-1.23962,0.27082 -2.00254,0.55584a4.51368,3.47092 0 0 0 -0.58368,0.25661a14.55076,11.18971 0 0 1 1.02567,0.39247q1.99221,0.8462 1.99221,1.65599a5.5675,4.2816 0 0 1 -0.96561,2.40185a6.92536,5.3267 0 0 1 -0.18956,0.20955q-1.15516,1.21558 -3.12486,1.9499a9.65515,7.42488 0 0 1 -4.00789,0.73166a11.24667,8.64845 0 0 1 -0.29466,0.00266q-1.87304,0 -3.07606,-0.5594a3.87651,2.98167 0 0 1 -0.89711,-0.57449a4.95191,3.80834 0 0 1 -1.0754,-1.58229q-0.19706,-0.57449 -0.22803,-1.25376a9.50782,7.31211 0 0 1 -0.00563,-0.25572a12.25075,9.42095 0 0 1 0.24492,-1.81316q0.22428,-0.87639 0.65312,-1.84068a25.16026,19.34891 0 0 1 0.58744,-1.18716l0,-0.00089zm-48.14907,0.32676l3.25342,0.8169q-0.71318,1.52547 -0.84268,2.48177a5.01103,3.85362 0 0 0 -0.03003,0.40046a3.42139,2.63094 0 0 0 0.06569,0.53276q0.08633,0.31966 0.2834,0.56028a1.79234,1.37807 0 0 0 0.32281,0.29479a2.05509,1.58052 0 0 0 0.68503,0.30367q0.30404,0.08435 0.68128,0.12431a5.34885,4.11379 0 0 0 0.72069,0.03374a8.21847,6.32029 0 0 0 0.48984,-0.01154q0.457,-0.02131 1.0313,-0.07903a16.18357,12.44524 0 0 0 1.73322,-0.24862a17.75913,13.65727 0 0 0 0.11824,-0.02309a49.58951,38.13665 0 0 0 -0.08446,-1.14721q-0.05161,-0.53897 -0.12011,-1.01935a29.53131,22.71062 0 0 0 -0.01971,-0.13674q-0.14545,-0.96429 -0.38756,-2.40452a456.20097,350.83939 0 0 0 -0.02534,-0.15184l3.81927,-0.61711a28.67549,22.05266 0 0 1 0.48421,1.91616q0.18862,0.99448 0.21865,1.89041a16.87235,12.97534 0 0 1 0.00563,0.32853a12.96863,9.97324 0 0 1 -0.19519,1.78208q-0.23835,1.0078 -0.76761,1.81582a6.99762,5.38086 0 0 1 -0.54708,0.69969q-2.62375,0.60557 -4.7708,0.72988a14.3612,11.04409 0 0 1 -1.07634,0.03197a12.84851,9.8809 0 0 1 -1.73415,-0.08435q-2.04195,-0.21399 -3.1943,-0.97672a4.45738,3.4283 0 0 1 -1.44701,-1.90017a6.80337,5.23258 0 0 1 -0.15671,-1.1552q0,-1.31858 0.68691,-3.05626a27.63106,21.24908 0 0 1 0.79857,-1.73147l0.00094,0zm76.82175,0l3.25436,0.8169q-0.71318,1.52547 -0.84362,2.48177a5.01103,3.85362 0 0 0 -0.02815,0.40046a3.42139,2.63094 0 0 0 0.06475,0.53276q0.08539,0.31966 0.2834,0.56028a1.79234,1.37807 0 0 0 0.32281,0.29479a2.05509,1.58052 0 0 0 0.68409,0.30367q0.30498,0.08435 0.68221,0.12431a5.34885,4.11379 0 0 0 0.72069,0.03374a8.21847,6.32029 0 0 0 0.48984,-0.01154q0.45606,-0.02131 1.0313,-0.07903a16.18357,12.44524 0 0 0 1.73322,-0.24862a17.75913,13.65727 0 0 0 0.1173,-0.02309a49.58951,38.13665 0 0 0 -0.08446,-1.14721q-0.05067,-0.53897 -0.11918,-1.01935a29.53131,22.71062 0 0 0 -0.01971,-0.13674q-0.14639,-0.96429 -0.38756,-2.40452a456.20097,350.83939 0 0 0 -0.02534,-0.15184l3.81927,-0.61711a28.67549,22.05266 0 0 1 0.48421,1.91616q0.18768,0.99448 0.21865,1.89041a16.87235,12.97534 0 0 1 0.00469,0.32853a12.96863,9.97324 0 0 1 -0.19519,1.78208q-0.23741,1.0078 -0.76667,1.81582a6.99762,5.38086 0 0 1 -0.54708,0.69969q-2.62375,0.60557 -4.77174,0.72988a14.3612,11.04409 0 0 1 -1.07634,0.03197a12.84851,9.8809 0 0 1 -1.73322,-0.08435q-2.04195,-0.21399 -3.1943,-0.97672a4.45738,3.4283 0 0 1 -1.44701,-1.90017a6.80337,5.23258 0 0 1 -0.15671,-1.1552q0,-1.31858 0.68597,-3.05626a27.63106,21.24908 0 0 1 0.79951,-1.73147zm-8.61072,-1.00336a2.76357,2.12571 0 0 1 0.68784,0.39602a4.60846,3.54462 0 0 1 0.92526,1.0593a5.83213,4.48405 0 0 1 0.25337,0.52743a7.25286,5.57798 0 0 1 0.3153,1.45621q0.00282,0.07459 0.00282,0.15006a6.73111,5.17664 0 0 1 -0.01126,0.29746q-0.1173,1.97653 -1.3907,3.95307q-1.2734,1.97742 -2.75888,3.33685a5.69981,4.38372 0 0 1 -0.50673,-0.17048q-0.55835,-0.21044 -1.26683,-0.5665a19.37411,14.89949 0 0 1 -0.10135,-0.0515a13.75688,10.57881 0 0 1 -0.64562,-0.34896q-0.32281,-0.18647 -0.58181,-0.36316a5.5112,4.2381 0 0 1 -0.45794,-0.34896a1.14203,0.87816 0 0 1 0.08727,-0.07991a1.51082,1.16141 0 0 1 0.08915,-0.06482q0.10604,-0.07281 0.20082,-0.16338q1.96969,-1.56897 2.9597,-2.70819a12.60547,9.69443 0 0 0 0.01126,-0.01154a5.42674,4.17328 0 0 1 -1.38789,-0.38536a4.60752,3.54373 0 0 1 -0.94684,-0.51234a2.78328,2.13991 0 0 1 -0.94027,-1.55921a3.47769,2.67445 0 0 1 -0.00282,-0.10034a4.61691,3.54995 0 0 1 0.24867,-1.12767a6.11646,4.70337 0 0 1 0.38756,-0.69436a6.57158,5.0541 0 0 1 1.00971,-1.10814a5.85559,4.50359 0 0 1 0.6062,-0.43331q0.97781,-0.60823 1.94529,-0.60823a2.69601,2.07332 0 0 1 1.26871,0.22997zm-1.83456,3.36082a9.35956,7.19757 0 0 0 1.0069,0.05328a10.45654,8.04199 0 0 0 0.17173,0.00089q0.51893,0 0.75447,-0.01776a3.16239,2.43293 0 0 0 -0.90931,-0.58603a3.64285,2.80142 0 0 0 -0.0929,-0.03996a2.94656,2.26689 0 0 0 -0.5377,-0.17137a2.20054,1.6924 0 0 0 -0.62872,-0.07281q-0.35471,0 -0.60151,0.09412a0.93183,0.71656 0 0 0 -0.09384,0.04173a0.60245,0.46261 0 0 0 -0.18486,0.14029q-0.07507,0.09146 -0.08539,0.21222a0.76385,0.58692 0 0 0 -0.00188,0.03729q0.14076,0.19978 1.20302,0.30811zm-52.25268,3.37325l-0.14076,-0.09057a61.15523,47.03105 0 0 0 0.10979,-2.23759a67.95391,52.26008 0 0 0 0.00751,-0.7725a127.49041,98.04625 0 0 0 -0.04035,-2.36101q-0.03284,-1.05486 -0.09384,-2.22871a251.93198,193.74748 0 0 0 -0.1492,-2.4649l3.81927,-0.16338a135.61316,104.29285 0 0 1 0.26463,4.21057a114.51897,88.07035 0 0 1 0.04317,2.39031q0,1.76876 -0.07507,2.94172a37.51236,28.84889 0 0 1 -0.01971,0.26816q-0.41759,0.1838 -1.25463,0.309a10.69959,8.22846 0 0 1 -0.32562,0.0444q-1.08385,0.13585 -2.14517,0.1545zm100.84936,0l-0.14076,-0.09057a61.15523,47.03105 0 0 0 0.11073,-2.23759a67.95391,52.26008 0 0 0 0.00751,-0.7725a127.49041,98.04625 0 0 0 -0.04035,-2.36101q-0.03284,-1.05486 -0.09384,-2.22871a251.93198,193.74748 0 0 0 -0.1492,-2.4649l3.81927,-0.16338a135.61316,104.29285 0 0 1 0.26369,4.21057a114.51897,88.07035 0 0 1 0.04317,2.39031q0,1.76876 -0.07507,2.94172a37.51236,28.84889 0 0 1 -0.01877,0.26816q-0.41759,0.1838 -1.25463,0.309a10.69959,8.22846 0 0 1 -0.32562,0.0444q-1.08479,0.13585 -2.14517,0.1545l-0.00094,0zm-0.77793,-10.8443l-1.03693,0a4.04448,3.11042 0 0 1 -0.24774,-0.515a2.96814,2.28198 0 0 1 -0.10604,-0.59136q0,-0.68903 0.60057,-1.14188q0.60151,-0.45284 1.63938,-0.45284a3.26655,2.51285 0 0 1 0.35941,0.01598q0.51143,0.0444 1.29123,0.20067q0.11824,0.01776 0.61277,0.10922a4.26407,3.27913 0 0 0 0.77418,0.08702a3.83522,2.94882 0 0 0 0.19331,0.00355a3.42984,2.63716 0 0 0 0.35659,-0.01332q0.28715,-0.02309 0.50392,-0.08702a1.37006,1.05309 0 0 0 0.18299,-0.06393q0.19331,-0.08347 0.27683,-0.1989l0.49453,0q0.2834,0.38181 0.2834,0.8169q0,0.63398 -0.56585,1.08772a1.82518,1.40382 0 0 1 -0.84643,0.37826q-0.28433,0.06127 -0.62216,0.07192a3.62221,2.78633 0 0 1 -0.15859,0.00266q-0.35565,0 -1.06039,-0.08169a24.01354,18.46719 0 0 1 -0.49547,-0.06304q-0.20457,-0.01776 -0.62779,-0.06837a40.88871,31.4452 0 0 1 -0.03284,-0.00444a7.74082,5.95269 0 0 0 -0.26369,-0.02841q-0.26369,-0.02486 -0.45512,-0.02664a2.30845,1.77586 0 0 0 -0.0122,0q-0.54239,0 -0.75447,0.15539q-0.21208,0.15361 -0.2834,0.40756zm-72.9321,16.48356a8.74585,6.72608 0 0 1 -0.27213,0.28236q-0.39413,0.38447 -0.69441,0.53365q-0.40069,-0.12697 -1.08385,-0.48037a10.90322,8.38473 0 0 1 -0.43448,-0.2353q-0.20176,-0.11543 -0.36597,-0.22376a4.52682,3.48069 0 0 1 -0.26087,-0.18469a4.60283,3.54018 0 0 1 -0.30967,0.37027a5.97007,4.5906 0 0 1 -0.3031,0.29124q-0.30592,0.27171 -0.51799,0.40667a1.52395,1.17207 0 0 1 -0.09572,0.05594a3.5218,2.70819 0 0 1 -0.29184,-0.10833q-0.3763,-0.15539 -0.89898,-0.43509a11.52068,8.85978 0 0 1 -0.38287,-0.21488q-0.34158,-0.19978 -0.55084,-0.36139a2.45203,1.88597 0 0 1 -0.11542,-0.09501q0.11918,-0.32143 0.54052,-0.8169a10.43402,8.02423 0 0 1 0.16703,-0.19002a4.89842,3.76749 0 0 1 0.22991,-0.23619q0.36973,-0.34629 0.64562,-0.38447a0.37911,0.29124 0 0 1 0.06756,-0.00444a0.7601,0.58515 0 0 1 0.21208,0.02664q0.30592,0.07103 0.79107,0.31699a7.77273,5.97755 0 0 1 0.1051,0.05505a7.1609,5.50695 0 0 1 0.34064,0.19091q0.31249,0.18647 0.47858,0.34185a1.10168,0.84797 0 0 1 0.12387,0.13852a6.31165,4.85343 0 0 1 0.44855,-0.53009a5.3939,4.14753 0 0 1 0.22334,-0.2131q0.36597,-0.32676 0.64843,-0.32676a0.78075,0.60024 0 0 1 0.22428,0.0293q0.36316,0.08524 0.96655,0.41466q0.72538,0.39691 0.86051,0.64109a0.41289,0.31788 0 0 1 0.0244,0.05683q0.0441,0.25484 -0.44761,0.80891a7.38048,5.67566 0 0 1 -0.07132,0.07991l-0.00094,0zm-35.65058,-12.42749q-0.31342,-0.12253 -0.71318,-0.32498a13.36181,10.27514 0 0 1 -0.25337,-0.13141a9.78183,7.52255 0 0 1 -0.41289,-0.23086q-0.3641,-0.21577 -0.57899,-0.39602a2.08699,1.60449 0 0 1 -0.11636,-0.10744q0.07038,-0.23619 0.36597,-0.64375q0.29372,-0.40845 0.67095,-0.74409q0.37723,-0.33475 0.66063,-0.37116a0.42979,0.3312 0 0 1 0.06381,-0.00533q0.20832,-0.00444 0.55647,0.12076a3.73294,2.87068 0 0 1 0.16891,0.06571q0.53113,0.21754 0.99095,0.53542q0.43635,0.30101 0.5011,0.47948a0.3397,0.26105 0 0 1 0.00563,0.01865q0.08821,0.25484 -0.45418,0.8684a7.73707,5.95003 0 0 1 -0.07601,0.08347q-0.62497,0.68016 -1.04913,0.8977a3.40262,2.61673 0 0 1 -0.33032,-0.11454zm76.82175,0q-0.31249,-0.12253 -0.71318,-0.32498a13.36181,10.27514 0 0 1 -0.25337,-0.13141a9.78183,7.52255 0 0 1 -0.41196,-0.23086q-0.3641,-0.21577 -0.57899,-0.39602a2.08699,1.60449 0 0 1 -0.1173,-0.10744q0.07132,-0.23619 0.36597,-0.64375q0.29466,-0.40845 0.67189,-0.74409q0.37723,-0.33475 0.66063,-0.37116a0.42979,0.3312 0 0 1 0.06381,-0.00533q0.20832,-0.00444 0.55647,0.12076a3.73294,2.87068 0 0 1 0.16891,0.06571q0.53113,0.21754 0.99095,0.53542q0.43635,0.30101 0.5011,0.47948a0.3397,0.26105 0 0 1 0.00563,0.01865q0.08821,0.25484 -0.45512,0.8684a7.73707,5.95003 0 0 1 -0.07507,0.08347q-0.62497,0.68016 -1.05006,0.8977a3.40262,2.61673 0 0 1 -0.33032,-0.11454zm-44.07644,12.97001q0.18768,0 0.50298,0.11721a3.60532,2.77212 0 0 1 0.16422,0.06571q0.47107,0.19978 0.87271,0.47149a3.08075,2.369 0 0 1 0.17266,0.12697q0.15953,0.1252 0.22803,0.2282a0.49078,0.37737 0 0 1 0.04692,0.09767a0.34064,0.26194 0 0 1 0.00375,0.03907q0.00094,0.24329 -0.49923,0.79559a8.25319,6.34693 0 0 1 -0.26087,0.27348q-0.26369,0.26016 -0.48234,0.4049a1.45639,1.11968 0 0 1 -0.17642,0.10122a3.93563,3.02696 0 0 1 -0.27683,-0.10655q-0.35753,-0.14828 -0.85488,-0.41022q-0.70755,-0.37116 -0.99001,-0.6251q0.05724,-0.28236 0.42228,-0.72722a7.53813,5.7973 0 0 1 0.1783,-0.20689a5.05795,3.88914 0 0 1 0.22521,-0.23264q0.37254,-0.35428 0.65875,-0.40756a0.46544,0.35784 0 0 1 0.0244,-0.00355a0.41102,0.3161 0 0 1 0.04035,-0.00178z" vector-effect="non-scaling-stroke"/>
    <g>
        <path fill="#ffffff" d="M145.125 6.41a3.157 3.157 0 1 1 4.465 4.466 3.157 3.157 0 0 1-4.465-4.466m3.012 1.452a1.103 1.103 0 1 0-1.56 1.562 1.103 1.103 0 0 0 1.56-1.562"/>
        <path fill="#ffffff" d="M155.886 1.019a1.027 1.027 0 0 0-.904-.904A17.341 17.341 0 0 0 140.72 5.09a17.396 17.396 0 0 0-2.377 2.957 9.219 9.219 0 0 0-6.17 2.701 9.314 9.314 0 0 0-1.68 2.296 1.027 1.027 0 0 0 1.112 1.48 8.41 8.41 0 0 1 4.866.479l4.523 4.52a8.41 8.41 0 0 1 .48 4.868 1.027 1.027 0 0 0 1.477 1.114 9.314 9.314 0 0 0 2.297-1.68 9.219 9.219 0 0 0 2.701-6.169 17.396 17.396 0 0 0 2.96-2.38 17.341 17.341 0 0 0 4.977-14.257M145.73 18.85a7.123 7.123 0 0 1-2.045 3.629 10.547 10.547 0 0 0-.435-2.738 17.26 17.26 0 0 0 2.479-.89m-9.473-6.104a10.547 10.547 0 0 0-2.74-.439l.108-.108a7.164 7.164 0 0 1 3.522-1.935q-.542 1.213-.89 2.482m5.916-6.205a15.273 15.273 0 0 1 11.743-4.458 15.273 15.273 0 0 1-4.459 11.74 15.246 15.246 0 0 1-7.205 4.054l-4.132-4.133a15.204 15.204 0 0 1 4.053-7.202"/>
        <path fill="#fa6f0d" d="m131.789 23.219 1.027-.037-1.027.037za1.027 1.027 0 0 0 .989.99l.038-1.027-.038 1.027h.044a9.588 9.588 0 0 0 .472.004c.304-.004.723-.018 1.174-.06a8.47 8.47 0 0 0 1.425-.243c.438-.12.987-.328 1.387-.728a3.157 3.157 0 1 0-4.465-4.466c-.4.4-.607.95-.728 1.39a8.219 8.219 0 0 0-.243 1.424 15.068 15.068 0 0 0-.055 1.646v.043zm2.48-3.05a1.103 1.103 0 0 1 1.56 1.56.548.548 0 0 1-.12.07 2.192 2.192 0 0 1-.363.13 6.849 6.849 0 0 1-1.068.179q-.217.02-.42.031.012-.203.032-.419a6.44 6.44 0 0 1 .178-1.068q.063-.232.129-.363a.548.548 0 0 1 .071-.12"/>
    </g>
</svg>
